<?xml version="1.0" encoding="utf-8"?>
<!-- Generator: Adobe Illustrator 24.3.0, SVG Export Plug-In . SVG Version: 6.00 Build 0)  -->
<svg version="1.1" id="Camada_1" xmlns="http://www.w3.org/2000/svg" xmlns:xlink="http://www.w3.org/1999/xlink" x="0px" y="0px"
	 viewBox="0 0 795.2 221.6" style="enable-background:new 0 0 795.2 221.6;" xml:space="preserve">
<style type="text/css">
	.st0{clip-path:url(#SVGID_2_);}
	.st1{fill:#FFFFFF;}
	.st2{fill-rule:evenodd;clip-rule:evenodd;fill:#F3C320;}
</style>
<g id="Camada_2_1_">
	<g id="Camada_1-2">
		<g>
			<defs>
				<rect id="SVGID_1_" x="-27.6" y="-73.6" width="850.4" height="425.2"/>
			</defs>
			<clipPath id="SVGID_2_">
				<use xlink:href="#SVGID_1_"  style="overflow:visible;"/>
			</clipPath>
			<g class="st0">
				<path class="st1" d="M728.5,38.6h66.7V3.7H624.6v34.9h66.7v179.3h37.2V38.6z M617.7,183.6l-23.7-24.5
					c-8.2,8-17.4,14.8-27.3,20.4c-9.2,5-20.2,7.5-33,7.5c-9.6,0.1-19.1-2-27.8-6c-8.4-3.9-15.9-9.5-22.1-16.4
					c-6.3-7.1-11.2-15.4-14.4-24.3c-3.5-9.6-5.2-19.7-5.1-29.8c-0.1-10.1,1.6-20.2,5.1-29.7c3.2-8.9,8.1-17,14.4-24
					c6.2-6.8,13.7-12.3,22.1-16.2c8.7-4,18.2-6.1,27.8-6c12,0,22.7,2.4,32.1,7.3c9.7,5.2,18.7,11.7,26.7,19.4l23.7-27.8
					c-5-4.9-10.3-9.4-15.9-13.5c-5.7-4.1-11.9-7.7-18.3-10.6c-7-3.1-14.3-5.4-21.8-6.9c-8.7-1.7-17.5-2.5-26.3-2.4
					c-16,0-30.6,2.9-43.9,8.7c-12.9,5.6-24.5,13.7-34.2,23.9c-9.7,10.2-17.3,22.3-22.3,35.4c-10.7,27.9-10.6,58.7,0.1,86.6
					c5.1,13,12.7,24.9,22.4,35c20,20.7,47.6,32.3,76.4,32c9,0.1,18-0.8,26.9-2.6c7.7-1.6,15.3-4.2,22.4-7.6
					c6.7-3.3,13.1-7.3,19-11.9C606.8,194.6,612.5,189.4,617.7,183.6 M433,183.6l-23.7-24.5c-8.2,8-17.4,14.8-27.3,20.4
					c-9.2,5-20.2,7.5-33,7.5c-9.6,0.1-19.1-2-27.8-6c-8.4-3.9-15.9-9.5-22.1-16.4c-6.3-7.1-11.2-15.4-14.4-24.3
					c-3.5-9.6-5.2-19.7-5.1-29.8c-0.1-10.1,1.6-20.2,5.1-29.7c3.2-8.9,8.1-17,14.4-24c6.2-6.8,13.7-12.3,22.1-16.2
					c8.7-4,18.2-6.1,27.8-6c12,0,22.7,2.4,32.1,7.3c9.8,5.2,18.8,11.6,26.7,19.3l23.7-27.8c-5-4.9-10.3-9.4-15.9-13.5
					c-5.7-4.1-11.9-7.7-18.3-10.6c-7-3.1-14.3-5.4-21.9-6.9C366.8,0.7,358-0.1,349.2,0c-16,0-30.6,2.9-43.9,8.7
					c-12.9,5.6-24.5,13.7-34.2,23.9c-9.7,10.2-17.3,22.2-22.4,35.3c-0.4,1-0.8,2-1.1,3c4.2,0.1,8.4,0.2,12.6,0.4l25.5,1.2
					l-43.8,21.4c-0.8,5.7-1.2,11.4-1.2,17.1c-0.1,14.9,2.6,29.6,8.1,43.4c5.1,13,12.7,24.9,22.4,35c20,20.7,47.6,32.3,76.4,32
					c9,0.1,18-0.8,26.9-2.6c7.7-1.6,15.3-4.2,22.4-7.6c6.7-3.3,13.1-7.3,19.1-11.8C422.1,194.6,427.8,189.4,433,183.6 M175.2,112.3
					l8.7,20.5l13.5,33.4l21.3,51.7h39.1L211.1,109l-2.1,1h-1.4C196.7,110.2,185.9,110.9,175.2,112.3 M66.8,151.8l-28.4,66.1h37.9
					L98,166.2l13.5-33.4l1.8-4.3c-7,2.8-13.9,5.9-20.7,9.3C83.9,142.1,75.3,146.8,66.8,151.8 M165.2,2.1H131L80.6,119.8
					c9.9-6.3,20.1-12.2,30.6-17.6c5.5-2.8,11-5.4,16.5-7.8l19.9-47.3l14.8,34.8c11.2-3.2,22.5-5.7,34-7.5L165.2,2.1z"/>
				<path class="st2" d="M207.4,103.5C140,104.8,86.2,124,0,189.7C78,124,145,72.2,259.9,77.9L207.4,103.5z"/>
			</g>
		</g>
	</g>
</g>
</svg>
